<svg xmlns="http://www.w3.org/2000/svg" width="53" height="43" viewBox="0 0 53 43">
    <g fill="none" fill-rule="evenodd">
        <path fill="#F5A528" d="M0 43h53v-8H0z"/>
        <path fill="#D22328" d="M0 35h53V0H0z"/>
        <path fill="#FFF" d="M34.939 37.455v4.453h-1.921v-4.453h-1.94v-1.54h5.802v1.54h-1.941zm12.752-.342c-.09.394-.874 2.394-.874 2.394h1.766s-.804-2-.892-2.394zm1.415 4.795l-.375-1.203h-2.08l-.377 1.203h-2.059l2.515-5.992h1.94l2.516 5.992h-2.08zm-29.682-4.795c-.09.394-.874 2.394-.874 2.394h1.767s-.805-2-.893-2.394zm1.416 4.795l-.376-1.203h-2.08l-.377 1.203h-2.059l2.515-5.992h1.94l2.517 5.992h-2.08zM4.742 42c-1.12 0-2.2-.31-2.922-.714l.93-.88c.505.293 1.386.299 2.03.299.684 0 .902-.206.902-.483 0-.218-.248-.53-1.178-.715-1.674-.326-2.476-.534-2.476-1.708 0-1.107 1.06-1.853 2.733-1.853 1.177 0 2.03.243 2.763.68l-.93.786c-.614-.352-1.23-.299-1.932-.299-.575 0-.713.384-.713.594 0 .218.247.426 1.139.603 1.742.352 2.516.697 2.516 1.795 0 1.342-1.2 1.895-2.862 1.895zm35.285-24.667v4.217h-2.389c-2.202 0-4.407-.1-6.013 0 1.193-1.236 2.525-3.476 4.224-5.7l.458-.592c2.113-2.717 2.986-3.953 3.858-5.385-.092 1.63-.138 5.434-.138 7.46zm7.99 4.391V0H39.2L21.889 21.757v6.002H9.422c.69-2.093 2.549-4.608 8.977-7.845 6.153-3.087 7.623-5.877 7.623-10.46 0-4.812-2.422-8.213-7.099-9.454H8.557C5.46.723 2.747 2.32.077 4.175l4.088 7.123c3.214-2.342 6.336-3.536 9.55-3.536 2.572 0 3.582.846 3.582 2.39 0 1.394-.505 1.942-3.903 3.586C5.454 17.578.386 23.17 0 34.643V35h25.911v-6.17h14.116V35h7.99v-6.034H53v-7.242h-4.983z"/>
    </g>
</svg>
